<svg xmlns="http://www.w3.org/2000/svg" xmlns:xlink="http://www.w3.org/1999/xlink" width="24" height="24" version="1.1" viewBox="0 0 36 36"><g id="Page-1" fill="none" fill-rule="evenodd" stroke="none" stroke-width="1"><g id="website_icon" fill="#fff"><path id="Imported-Layers" d="M31.4692683,0 L4.49560976,0 C2.02302439,0 0,2.02302439 0,4.49560976 L0,10.2765073 C0,10.2765073 5.7752078,13.6324449 6.14131902,13.8443707 C6.60499902,14.1127024 7.18071805,14.1092605 7.64594341,13.8448273 C8.03463805,13.6239102 19.6633054,6.93753366 19.8370888,6.83726049 C20.2556722,6.59614829 20.7070595,6.67752585 20.9579707,6.82391415 C21.2045268,6.96816 21.8669971,7.34452683 22.2160039,7.54349268 C22.5646244,7.74245854 22.5489951,8.29436488 22.2373932,8.47418927 C21.925159,8.65457561 8.31845854,16.4844527 7.68317268,16.850599 C7.1648078,17.1493815 6.65016585,17.1568976 6.11255415,16.8533385 C5.21174634,16.3448078 1.49489561,14.1800663 0,13.3095337 L0,16.3364137 C0,16.3364137 5.7752078,19.6923161 6.14131902,19.904242 C6.60499902,20.1725385 7.18071805,20.1691317 7.64594341,19.9046634 C8.03463805,19.6837815 19.6633054,12.9973698 19.8370888,12.8970966 C20.2556722,12.6559844 20.7070595,12.7373971 20.9579707,12.8837854 C21.2045268,13.0280312 21.8669971,13.404398 22.2160039,13.6033288 C22.5646244,13.8022946 22.5489951,14.354201 22.2373932,14.5340605 C21.925159,14.7144468 8.31845854,22.5443239 7.68317268,22.9104702 C7.1648078,23.2092176 6.65016585,23.2167337 6.11255415,22.9132098 C5.21174634,22.4046439 1.49489561,20.2399024 0,19.3694049 L0,22.39632 C0,22.39632 5.7752078,25.7521873 6.14131902,25.964078 C6.60499902,26.2324098 7.18071805,26.2289678 7.64594341,25.9645346 C8.03463805,25.7436176 19.6633054,19.057241 19.8370888,18.9569678 C20.2556722,18.7158556 20.7070595,18.7972683 20.9579707,18.9436215 C21.2045268,19.0879024 21.8669971,19.4642341 22.2160039,19.6632 C22.5646244,19.8621659 22.5489951,20.4140371 22.2373932,20.5938966 C21.925159,20.7742829 8.31845854,28.6041951 7.68317268,28.9703063 C7.1648078,29.2690888 6.65016585,29.2766049 6.11255415,28.973081 C5.21174634,28.4645151 1.49489561,26.2997737 0,25.4292761 L0,31.4692683 C0,33.9418537 2.02302439,35.964878 4.49560976,35.964878 L31.4692683,35.964878 C33.9418537,35.964878 35.964878,33.9418537 35.964878,31.4692683 L35.964878,4.49560976 C35.964878,2.02302439 33.9418537,0 31.4692683,0"/></g></g></svg>